<?xml version="1.0" encoding="utf-8"?>
<!-- Generator: Adobe Illustrator 19.2.1, SVG Export Plug-In . SVG Version: 6.00 Build 0)  -->
<svg version="1.1" id="Layer_1" xmlns="http://www.w3.org/2000/svg" xmlns:xlink="http://www.w3.org/1999/xlink" x="0px" y="0px"
	 viewBox="0 0 150 191" style="enable-background:new 0 0 150 191;" xml:space="preserve">
<style type="text/css">
	.st0{fill:#38BFBD;}
</style>
<path class="st0" d="M120.2,101.9c-4.3-3.7-9.3-8-15.6-10.3c-6.3-2.3-8.1-2.8-9.4-3.5s-1.5-0.6-1.5-0.9c-0.1-0.3-0.2-0.1-0.3-0.2
	c-0.2-0.1-0.1,0.3,0.1-1.1s0.1-3.7,0.1-4.9c0.1-1.2,0.2-2.1,0.5-2.4c0.2-0.3,2.9-2.1,5-3.6s6.5-4.4,9.4-6.9c2.8-2.5,5.2-5.4,6.1-5.9
	c0.8-0.6,1.6-1.1,2.5-1.8s2.7-2.3,4.1-4.2s1.4-2.8,1.9-3.2c0.5-0.5,1.1-1.4,1.1-1.6c0-0.3-0.6-0.9-0.9-1c-0.4-0.1-0.8,0.2-0.9,0.3
	c-0.2,0.1,0.2-0.6,0.3-1.1c0.1-0.5,0.4-0.9-0.1-1.2s-1.2-0.3-1.2-0.3s0.2-1,0.1-1.2s-0.9-0.7-0.9-0.7s-0.7,0.1-0.9,0.2
	c-0.2,0.2,0.1-0.4-0.5-0.7c-0.6-0.4-1.1-0.5-1.5-0.2c-0.5,0.2-1.4,1.5-2.1,2.2c-0.6,0.7-1.1,1.5-1.2,1.8s0,1.1-0.6-0.2
	c-0.7-1.3-0.9-2.5-1.3-2.9c-0.4-0.5-1.4-1.3-2-1.4c-0.6,0-0.7,0.5-0.5,1c0.3,0.5,0.9,1.5,1,2.2s0.4,2.5,0.4,2.6
	c0,0.2,0.2,0.6,0.5,1.4c0.2,0.8,0.7,3.7,0.3,4.3c-0.4,0.6-2.8,2.6-4.4,3.8s-4.7,3.5-7.5,4.4c-2.8,0.9-3.6,1.4-3.5,0.8
	c0.1-0.7,0.1-3.9,0.5-5s0.4-4.5,0.1-6c-0.4-1.5-2.6-7.2-2.9-10.1c-0.3-2.9-0.7-2.4-0.6-2.6c0.1-0.2,0.2-0.7,0.2-1.4
	c-0.1-0.7-0.3-1.3-0.2-1.7c0.1-0.4,0.4-1.7,2.4-2.2c2.1-0.5,2.3-1,2.5-1.7c0.2-0.7-0.2-1.7,0.5-2c0.7-0.3,0.4-0.7,0.2-1
	c-0.1-0.3-0.5-0.6-0.1-0.7c0.4-0.2,0.8-0.5,0.7-0.8c-0.1-0.3-0.2-0.7,0.1-0.9c0.2-0.2,0.7,0.1,1.1-0.1s1.2-0.9,0.6-2
	s-1.8-2.5-1.4-3.3c0.5-0.8,0.5-1.8,0.2-2.3c-0.3-0.6-1.1-2.1-1.3-2.9c-0.2-0.8-0.7-0.9-0.9-1.2c-0.2-0.3,0.9-1.5-1-3.7
	s-3-3.5-3.5-3.7s-0.7-0.2-0.6,0.2c0.2,0.4-0.3,0.2-1-0.4s-1.3-1.1-1.2-0.6c0.1,0.4,0.3,0.9-0.5,0.5c-0.8-0.4-1.5-0.9-2-0.9
	s-0.7,0.8-0.3,1.2c0.4,0.4,0.4,0.5-0.3,0.5c-0.8,0-1.8,0.1-1.7,0.3c0,0.2-0.1,0.3-0.8,0.3s-1.8,0.1-1.8,0.5c0,0.4,0.3,1-0.5,1.1
	c-0.8,0.1-1.4-0.1-1.4,0.4s-0.3,1.1-0.8,1.1s-0.5,0.8-0.3,1.3c0.2,0.4-0.4,0.3-0.8,0.6c-0.4,0.2-0.5,0.9-0.5,1.3s0,0.4-0.4,1
	s-0.5,1-0.5,1.5c0,0.6,0.7,3.7,1,4.3c0.3,0.6,0.2,1,0.7,1.6c0.5,0.7,0.9,1.1,1.2,2c0.3,0.8,0.5,1.1,0.8,1.4c0.3,0.3,0.3,0.7,0.4,1
	c0.1,0.3,0.3,0.7,0.3,0.7l-0.5,3.5c0,0-0.2,0.2-0.7,0.6c-0.6,0.3-1.2,1.4-1.8,1.8s-0.9,0.9-4.1,1.8c-3.2,0.8-5.3,2.9-6.1,3.5
	s-3.1,1.8-3.6,2.2c-0.5,0.3-2,0.5-2.2,1.8c-0.3,1.3-0.5,4.8-0.8,6.1c-0.4,1.3-0.6,4.3,0,9.3s0.7,7.6,0.3,8.2
	c-0.4,0.6-1.6,2.2-2.1,3.3c-0.5,1-1.1,4.7-1,5.1c0.1,0.3-0.7,2.4-1,3c-0.4,0.6-0.6,1.2-0.6,1.2s-0.3-0.3-0.9,0s-0.5,0.7-0.5,0.7
	s-0.7,0-1,0.5s0.1,1.1,0.6,1.1c0.6-0.1,1.6,0,1.6,0s0.4,0.4,1,0.4s1.2,0,1.2,0s0.1,0,0.5,0c0.5,0,0.8-0.2,0.8-0.3c0-0.1,0.5,0,0.8,0
	s1.1-0.5,1.7-1.8c0.6-1.3,0.8-1.6,1-1.8c0.3-0.2,0.5-0.4,0.5-0.6s0.2,0.2,0.4,0.4c0.3,0.2,1.3,1,1.7,0.9c0.5-0.1,0.7-0.4,0.5-0.7
	c-0.1-0.3-0.9-1.3-0.8-2.1c0-0.8-0.1-2.2,0-2.5c0.1-0.3,0-1-0.1-1.4c-0.1-0.3,0-2.1,0.4-3.1c0.4-1,0.4-2.8,0.6-4.7
	c0.2-1.9,0.6-4.8,1.1-6.4s1.8-5.3,2.4-7c0.6-1.7,1-3.2,1-3.2l0.6-0.1c0,0-1.2,4.1-1.2,6.4c0,2.3-0.1,7.3-0.1,8.1
	c0,0.9,0.3,3.9,0.7,5.2c0.4,1.3,1.1,3.3,0.8,4.6c-0.3,1.4-0.2,4.1-0.6,5.3c-0.4,1.2-0.6,2.2-0.8,2.5c-0.2,0.3-1,0.4-1.8,0.8
	c-0.9,0.4-4.6,4.5-5.5,7s-1.8,5.9-1.7,10.5s-1.3,6.3-1.9,7.7c-0.6,1.3-3.5,8.8-4.3,11.8s-1.5,5.4-7,9.6c-5.5,4.2-7.5,5.8-9.4,9.2
	c-1.9,3.4-3.9,6.9-5.2,9.2c-1.3,2.3-3.8,6.2-6.1,7.5c0,0-0.5-0.1-1,0s-1.5,0.4-1.8,0.4c-0.4,0-0.6,0.3-0.9,0.5
	c-0.3,0.3-1.2,0.4-1.8,1s-1.3,1.3-1.3,2.5s1.1,6.5,1.2,8.1s-0.3,4.5,0.1,6.7s1.8,4.4,4,5.9c2.1,1.5,5,1.2,5.8,1.1
	c0.8-0.2,1.5-1.5,0.9-2.7c-0.6-1.2-2.8-4.1-2.4-5.6c0.4-1.6,0.9-3.9,1.4-4.5s1.8-1.7,1.7-2.1c-0.2-0.4-0.5-0.6-0.7-0.4
	c-0.2,0.1-0.6-0.3-0.5-0.7c0.1-0.5,2.3-5.7,3.4-7.4c1.1-1.7,8-7.9,10.7-10.5s7.2-7.3,8.9-8.4c1.7-1.1,6.6-3.8,7.4-4.8s1.8-3,2.8-4
	c1-0.9,4.6-5.7,5.5-6.9c0.9-1.2,7.1-10.6,8.4-13.7s1.8-4.3,2.3-4.1c0.5,0.2,10,3.3,15.5,3.8s5.4,0.5,4.9,0.7
	c-0.5,0.3-4.4,2.5-5.9,4.2s-3.9,2.7-6.3,4.2s-7.2,4.3-9.9,4.8c0,0-0.1-0.2-0.6-0.3s-2.1-0.2-3.3,0c-1.1,0.2-1.3,0.3-2.4,0.8
	c-1.1,0.5-2.6,1.3-2.2,3.4c0.4,2.1,2.6,5.9,3,8.2c0.4,2.3-0.2,6,0.6,7.8c0.7,1.8,2.3,4.8,3.2,5.7c0.9,0.9,2.5,0.8,2.9,0
	c0.4-0.9,0.4-0.6,0.4-2.5s-1-5.2-0.3-7.1c0.7-1.8,1.2-2.5,1.3-3c0.1-0.5,1.3-0.8,1.9-1.5c0.6-0.7,1.3-1,1.1-1.7s-1.1-0.8-0.7-1.2
	c0.4-0.3,3.7-4.2,13.5-6.8s12.9-5,14.1-5.5s4.1-1,5.4-1.8c1.4-0.8,5.4-4.2,5.3-6.8C125.3,108.9,124.5,105.6,120.2,101.9z"/>
</svg>
